# xmcd
#
# Track frame offsets: 
#        150
#        10151
#        30760
#        49937
#        66059
#        88419
#        95401
#        107950
#        124270
#        140684
#        177078
#        193492
#        213905
#        233524
#        254760
#        273469
#        284874
#
# Disc length: 4158 seconds
#
# Revision: 0
# Processed by: cddbd v1.5.2PL0 Copyright (c) Steve Scherf et al.
# Submitted via: ExactAudioCopy v0.95a4
#
DISCID=06103c11
DTITLE=Various Artist - Mountain Stage Volume I
DYEAR=2000
DGENRE=Country
TTITLE0=Larry Groce - Shaver Intro
TTITLE1=Shaver - Georgia On A Fast Train
TTITLE2=Shaver - When The Fallen Angels Fly
TTITLE3=Shaver - Live Forever
TTITLE4=Shaver - You Can't Beat Jesus Christ
TTITLE5=Larry Groce - Gordon Lightfoot Intro
TTITLE6=Gordon Lightfoot - 14 Karat Gold
TTITLE7=Gordon Lightfoot - In My Fashion
TTITLE8=Gordon Lightfoot - Prove My Love
TTITLE9=Gordon Lightfoot - The Wreck Of The Edmund Fitzgerald
TTITLE10=Gordon Lightfoot - Sundown
TTITLE11=Gordon Lightfoot - If You Could Read My Mind
TTITLE12=Gordon Lightfoot - The Blue Whale
TTITLE13=Gordon Lightfoot - A Painter Passing Through
TTITLE14=Gordon Lightfoot - Early Morning Rain
TTITLE15=Chris Smither - Get A Better One
TTITLE16=Chris Smither - Hold On #2
EXTD=
EXTT0=
EXTT1=
EXTT2=
EXTT3=
EXTT4=
EXTT5=
EXTT6=
EXTT7=
EXTT8=
EXTT9=
EXTT10=
EXTT11=
EXTT12=
EXTT13=
EXTT14=
EXTT15=
EXTT16=
PLAYORDER=
